<svg width="165" height="49" viewBox="0 0 165 49" fill="none" >
<g clip-path="url(#clip0_474_9224)">
<path d="M43.9125 42.6922H39.6152L38.8385 45.9159H34.0752L38.8385 31.2159H44.9221L49.4784 45.9159H44.6891L43.9125 42.6922ZM41.738 34.388L40.2106 39.8296H43.2912L41.8415 34.388H41.738ZM58.4284 33.7948C58.6528 33.7948 58.8858 33.8206 59.1274 33.8722C59.3863 33.9238 59.5761 33.984 59.6969 34.0527C59.6969 34.431 59.6538 35.0585 59.5675 35.9354C59.4812 36.795 59.4035 37.4054 59.3345 37.7664C59.1619 37.7492 58.8426 37.7406 58.3767 37.7406C57.2894 37.7406 56.3229 37.8008 55.4772 37.9211V45.9159H51.0504V34.0527H54.7524L55.2701 35.9611H55.296C55.7965 35.3078 56.3315 34.7834 56.9011 34.388C57.4706 33.9926 57.9797 33.7948 58.4284 33.7948ZM71.3957 45.5548C69.9978 46.019 68.4359 46.2511 66.7101 46.2511C64.7771 46.2511 63.3274 45.7697 62.3609 44.8069C61.4117 43.8269 60.9371 42.3054 60.9371 40.2422C60.9371 39.2278 61.0752 38.2306 61.3513 37.2506C61.6275 36.2534 61.9209 35.5829 62.2315 35.239C62.5939 34.8436 63.3015 34.5083 64.3543 34.2333C65.4243 33.9582 66.5289 33.8206 67.6679 33.8206C68.8587 33.8206 70.0582 33.9238 71.2663 34.1301C71.2318 34.5599 71.1714 35.0671 71.0851 35.6517C71.0161 36.219 70.9384 36.7262 70.8521 37.1733C69.7821 37.1045 68.7725 37.0701 67.8232 37.0701C66.8913 37.0701 66.2959 37.1217 66.037 37.2248C65.8989 37.2764 65.7695 37.6289 65.6487 38.2822C65.5451 38.9355 65.4934 39.5459 65.4934 40.1133C65.4934 40.8697 65.5969 41.4543 65.804 41.8669C66.0284 42.2624 66.3735 42.5375 66.8395 42.6922C67.3055 42.8469 67.9354 42.9243 68.7293 42.9243C69.0745 42.9243 69.8339 42.8899 71.0074 42.8211L71.3957 45.5548ZM84.9178 34.8006C85.0732 34.9897 85.1853 35.4626 85.2544 36.219C85.3407 36.9755 85.3838 38.1275 85.3838 39.6748V45.9159H80.957V39.7264C80.957 39.6576 80.957 39.3224 80.957 38.7206C80.957 38.1017 80.9139 37.7234 80.8276 37.5859C80.7758 37.5171 80.6464 37.4655 80.4393 37.4311C80.2494 37.3968 80.0251 37.3796 79.7662 37.3796L79.3261 37.4054C78.8429 37.4226 78.3424 37.5343 77.8246 37.7406V45.9159H73.3978V30.4422L77.8246 30.2617V33.279C77.8246 34.5169 77.7815 35.3422 77.6952 35.7548L77.7211 35.7806C78.8946 34.4568 80.3012 33.7948 81.9407 33.7948C82.5621 33.7948 83.1402 33.8808 83.6752 34.0527C84.2275 34.2247 84.6417 34.474 84.9178 34.8006ZM90.2503 32.5827C89.6635 32.5827 89.1544 32.385 88.7229 31.9896C88.3087 31.5941 88.1016 31.1213 88.1016 30.5711C88.1016 30.021 88.3087 29.5482 88.7229 29.1527C89.1544 28.7573 89.6635 28.5596 90.2503 28.5596C90.8371 28.5596 91.3376 28.7573 91.7518 29.1527C92.166 29.5482 92.373 30.021 92.373 30.5711C92.373 31.1213 92.166 31.5941 91.7518 31.9896C91.3376 32.385 90.8371 32.5827 90.2503 32.5827ZM88.0239 34.0527H92.4507V45.9159H88.0239V34.0527ZM113.777 34.878C114.053 35.2906 114.191 36.8896 114.191 39.6748V45.9159H109.764V40.1133V38.7206C109.764 38.0845 109.704 37.7062 109.583 37.5859C109.445 37.4483 109.152 37.3796 108.703 37.3796L108.392 37.4054C107.857 37.4397 107.348 37.5601 106.865 37.7664C106.882 38.1275 106.891 38.7636 106.891 39.6748V45.9159H102.464V40.1133V38.5659C102.464 38.0329 102.404 37.7062 102.283 37.5859C102.145 37.4483 101.851 37.3796 101.403 37.3796L101.092 37.4054C100.609 37.4226 100.108 37.5343 99.5905 37.7406V45.9159H95.1637V34.0527H98.7621L99.2281 35.9869C99.7976 35.2304 100.453 34.6803 101.196 34.3364C101.938 33.9754 102.688 33.7948 103.448 33.7948C104.086 33.7948 104.69 33.8894 105.26 34.0785C105.847 34.2676 106.252 34.5341 106.477 34.878C106.58 35.0327 106.667 35.3164 106.736 35.729C107.288 35.0585 107.918 34.5685 108.625 34.259C109.333 33.9496 110.041 33.7948 110.748 33.7948C111.387 33.7948 111.991 33.8894 112.56 34.0785C113.147 34.2676 113.553 34.5341 113.777 34.878ZM123.859 45.9159L123.445 44.2911C122.651 45.5806 121.547 46.2254 120.132 46.2254C118.975 46.2254 118.026 45.9073 117.284 45.2711C116.559 44.6178 116.197 43.7066 116.197 42.5375C116.197 41.8154 116.404 41.1878 116.818 40.6548C117.249 40.1047 117.836 39.7178 118.578 39.4943C119.545 39.2192 121.038 39.0645 123.057 39.0301C123.057 37.8954 123.005 37.2936 122.902 37.2248C122.815 37.1561 122.539 37.1217 122.073 37.1217C121.78 37.1217 121.374 37.1389 120.856 37.1733C120.028 37.2076 118.906 37.3022 117.491 37.4569C117.353 36.5285 117.249 35.5313 117.18 34.4654C118.095 34.2762 119.053 34.1215 120.054 34.0011C121.055 33.8636 121.952 33.7948 122.746 33.7948C124.127 33.7948 125.162 34.0269 125.853 34.4911C126.543 34.9382 126.992 35.5313 127.199 36.2706C127.406 37.0099 127.501 37.9469 127.484 39.0817L127.458 42.8727L127.535 45.9159H123.859ZM121.633 43.3369C122.082 43.3369 122.556 43.251 123.057 43.079V41.1706H122.85C121.573 41.1706 120.865 41.2394 120.727 41.3769C120.641 41.4629 120.572 41.5918 120.52 41.7638C120.485 41.9357 120.468 42.099 120.468 42.2538C120.468 42.6664 120.563 42.9501 120.753 43.1048C120.943 43.2596 121.236 43.3369 121.633 43.3369ZM135.488 41.0417C135.488 41.3511 135.497 41.6778 135.514 42.0217C135.531 42.3483 135.583 42.5547 135.669 42.6406C135.79 42.761 136.213 42.8211 136.938 42.8211L137.818 42.7954C137.973 43.6206 138.051 44.5748 138.051 45.658C137.723 45.7783 137.24 45.8901 136.601 45.9933C135.98 46.0964 135.385 46.148 134.815 46.148C133.624 46.148 132.701 45.8901 132.045 45.3743C131.407 44.8413 131.087 44.0247 131.087 42.9243V36.5801H129.146V34.2333L131.087 34.0527L132.252 31.2159L135.488 31.0354V34.0527H138.232V36.5801H135.488V41.0417ZM150.092 45.5548C148.694 46.019 147.132 46.2511 145.407 46.2511C143.474 46.2511 142.024 45.7697 141.057 44.8069C140.108 43.8269 139.634 42.3054 139.634 40.2422C139.634 39.2278 139.772 38.2306 140.048 37.2506C140.324 36.2534 140.617 35.5829 140.928 35.239C141.29 34.8436 141.998 34.5083 143.051 34.2333C144.121 33.9582 145.225 33.8206 146.364 33.8206C147.555 33.8206 148.755 33.9238 149.963 34.1301C149.928 34.5599 149.868 35.0671 149.782 35.6517C149.713 36.219 149.635 36.7262 149.549 37.1733C148.479 37.1045 147.469 37.0701 146.52 37.0701C145.588 37.0701 144.992 37.1217 144.733 37.2248C144.595 37.2764 144.466 37.6289 144.345 38.2822C144.242 38.9355 144.19 39.5459 144.19 40.1133C144.19 40.8697 144.293 41.4543 144.5 41.8669C144.725 42.2624 145.07 42.5375 145.536 42.6922C146.002 42.8469 146.632 42.9243 147.426 42.9243C147.771 42.9243 148.53 42.8899 149.704 42.8211L150.092 45.5548ZM163.614 34.8006C163.77 34.9897 163.882 35.4626 163.951 36.219C164.037 36.9755 164.08 38.1275 164.08 39.6748V45.9159H159.653V39.7264C159.653 39.6576 159.653 39.3224 159.653 38.7206C159.653 38.1017 159.61 37.7234 159.524 37.5859C159.472 37.5171 159.343 37.4655 159.136 37.4311C158.946 37.3968 158.721 37.3796 158.463 37.3796L158.022 37.4054C157.539 37.4226 157.039 37.5343 156.521 37.7406V45.9159H152.094V30.4422L156.521 30.2617V33.279C156.521 34.5169 156.478 35.3422 156.392 35.7548L156.417 35.7806C157.591 34.4568 158.998 33.7948 160.637 33.7948C161.258 33.7948 161.837 33.8808 162.372 34.0527C162.924 34.2247 163.338 34.474 163.614 34.8006Z" fill="white"/>
<mask id="mask0_474_9224" style="mask-type:luminance" maskUnits="userSpaceOnUse" x="0" y="0" width="23" height="49">
<path d="M22.0154 0H0V48.8483H22.0154V0Z" fill="white"/>
</mask>
<g mask="url(#mask0_474_9224)">
<mask id="mask1_474_9224" style="mask-type:luminance" maskUnits="userSpaceOnUse" x="0" y="0" width="23" height="49">
<path d="M22.0154 0H0V48.8483H22.0154V0Z" fill="white"/>
</mask>
<g mask="url(#mask1_474_9224)">
<path d="M22.0154 18.1106L0 0V9.05606L22.0154 26.9453V18.1106Z" fill="#4FC9FC"/>
<path d="M22.0154 30.5706V31.2071V36.4412V48.8484H7.3877V32.5048V31.2071V28.1982V26.679V24.5543V24.0015V18.5366L22.0154 30.5706Z" fill="#FC5C63" fill-opacity="0.1"/>
<path d="M14.6971 33.6878V34.1245V39.5584V48.8483H0.0693359V34.9529V34.1245V29.5221V28.658V27.6715V27.3882V21.6538L7.38319 27.6715L14.6971 33.6878Z" fill="#4FC9FC"/>
</g>
</g>
</g>
<defs>
<clipPath id="clip0_474_9224">
<rect width="164.818" height="49" fill="white"/>
</clipPath>
</defs>
</svg>
